<?xml version="1.0" encoding="utf-8"?>
<!-- Generator: Adobe Illustrator 16.0.4, SVG Export Plug-In . SVG Version: 6.00 Build 0)  -->
<!DOCTYPE svg PUBLIC "-//W3C//DTD SVG 1.1//EN" "http://www.w3.org/Graphics/SVG/1.1/DTD/svg11.dtd">
<svg version="1.1" id="Layer_1" xmlns="http://www.w3.org/2000/svg" xmlns:xlink="http://www.w3.org/1999/xlink" x="0px" y="0px"
	 width="128px" height="128px" viewBox="0 0 128 128" enable-background="new 0 0 128 128" xml:space="preserve">
<path fill-rule="evenodd" clip-rule="evenodd" d="M121.888,53.767l-0.966-2.012l-1.627-1.285c-2.146-1.681-12.948,0.12-15.884-2.53
	c-2.054-1.908-2.352-5.326-2.979-9.945c-1.161-8.995-1.904-9.457-3.308-12.491C92.023,14.707,78.231,6.572,68.745,5.453H43.034
	c-20.206,0-36.732,16.556-36.732,36.781v42.89c0,20.171,16.526,36.692,36.732,36.692h42.233c20.205,0,36.62-16.521,36.738-36.692
	l0.238-29.723L121.888,53.767z M43.505,35.496h20.366c3.896,0,7.045,3.149,7.045,7.007c0,3.845-3.149,7.037-7.045,7.037H43.505
	c-3.892,0-7.035-3.192-7.035-7.037C36.47,38.646,39.613,35.496,43.505,35.496z M84.908,91.57H43.505
	c-3.892,0-7.035-3.189-7.035-7.008c0-3.845,3.144-6.987,7.035-6.987h41.403c3.861,0,7.001,3.143,7.001,6.987
	C91.909,88.381,88.77,91.57,84.908,91.57z"/>
</svg>
