<?xml version="1.0" encoding="utf-8"?>
<!-- Generator: Adobe Illustrator 16.0.4, SVG Export Plug-In . SVG Version: 6.00 Build 0)  -->
<!DOCTYPE svg PUBLIC "-//W3C//DTD SVG 1.1//EN" "http://www.w3.org/Graphics/SVG/1.1/DTD/svg11.dtd">
<svg version="1.1" id="Layer_1" xmlns="http://www.w3.org/2000/svg" xmlns:xlink="http://www.w3.org/1999/xlink" x="0px" y="0px"
	 width="28px" height="28px" viewBox="-241.5 460.5 28 28" enable-background="new -241.5 460.5 28 28" xml:space="preserve">
<path d="M-217.5,464.333v4.167h-6v-4.167h-10v4.167h-6v-4.167h-2v22.229h26v-22.229H-217.5z M-217.5,484.562h-22V470.5h22V484.562z"
	/>
<rect x="-237.5" y="462.5" width="2" height="4"/>
<rect x="-221.5" y="462.5" width="2" height="4"/>
<rect x="-237.5" y="472.5" width="2" height="2"/>
<rect x="-233.5" y="472.5" width="2" height="2"/>
<rect x="-229.5" y="472.5" width="2" height="2"/>
<rect x="-225.5" y="472.5" width="2" height="2"/>
<rect x="-221.5" y="472.5" width="2" height="2"/>
<rect x="-237.5" y="476.5" width="2" height="2"/>
<rect x="-233.5" y="476.5" width="2" height="2"/>
<rect x="-229.5" y="476.5" width="2" height="2"/>
<rect x="-225.5" y="476.5" width="2" height="2"/>
<rect x="-221.5" y="476.5" width="2" height="2"/>
<rect x="-237.5" y="480.5" width="2" height="2"/>
<rect x="-233.5" y="480.5" width="2" height="2"/>
<rect x="-229.5" y="480.5" width="2" height="2"/>
<rect x="-225.5" y="480.5" width="2" height="2"/>
<rect x="-221.5" y="480.5" width="2" height="2"/>
</svg>
