<?xml version="1.0" encoding="utf-8"?>
<!-- Generator: Adobe Illustrator 16.0.4, SVG Export Plug-In . SVG Version: 6.00 Build 0)  -->
<!DOCTYPE svg PUBLIC "-//W3C//DTD SVG 1.1//EN" "http://www.w3.org/Graphics/SVG/1.1/DTD/svg11.dtd">
<svg version="1.1" id="Layer_1" xmlns="http://www.w3.org/2000/svg" xmlns:xlink="http://www.w3.org/1999/xlink" x="0px" y="0px"
	 width="28px" height="28px" viewBox="-241.5 460.5 28 28" enable-background="new -241.5 460.5 28 28" xml:space="preserve">
<g>
	<path fill-rule="evenodd" clip-rule="evenodd" d="M-227.5,460.5c-7.732,0-14,6.268-14,14c0,7.732,6.268,14,14,14
		c7.732,0,14-6.268,14-14C-213.5,466.768-219.768,460.5-227.5,460.5z M-227.5,486.5c-6.627,0-12-5.372-12-12c0-6.627,5.373-12,12-12
		c6.628,0,12,5.373,12,12C-215.5,481.128-220.872,486.5-227.5,486.5z"/>
	<path fill-rule="evenodd" clip-rule="evenodd" d="M-220.315,473.625h-6.185v-8.375c0-0.497-0.403-0.9-0.9-0.9h-0.199
		c-0.498,0-0.9,0.403-0.9,0.9v9.273c0,0.001,0,0.001,0,0.002v0.199c0,0.497,0.403,0.9,0.9,0.9h0h0.199h7.085
		c0.497,0,0.899-0.403,0.899-0.9v-0.199C-219.416,474.028-219.818,473.625-220.315,473.625z"/>
</g>
</svg>
