<?xml version="1.0" encoding="utf-8"?>
<!-- Generator: Adobe Illustrator 16.0.4, SVG Export Plug-In . SVG Version: 6.00 Build 0)  -->
<!DOCTYPE svg PUBLIC "-//W3C//DTD SVG 1.1//EN" "http://www.w3.org/Graphics/SVG/1.1/DTD/svg11.dtd">
<svg version="1.1" id="Layer_1" xmlns="http://www.w3.org/2000/svg" xmlns:xlink="http://www.w3.org/1999/xlink" x="0px" y="0px"
	 width="128px" height="128px" viewBox="0 0 128 128" enable-background="new 0 0 128 128" xml:space="preserve">
<g>
	<path fill="#1D1D1B" d="M82.416,75.04H70.6c-0.708-2.269-1.703-4.408-2.908-6.397l7.852-7.86c1.854-1.831,1.854-4.823,0-6.669
		l-3.33-3.316c-1.854-1.838-4.838-1.838-6.678,0l-7.969,7.958c-2.155-1.228-4.491-2.17-6.978-2.818V45.582
		c0-2.607-2.095-4.717-4.703-4.717h-4.717c-2.592,0-4.718,2.11-4.718,4.717v10.354c-2.698,0.686-5.245,1.771-7.581,3.188
		l-6.677-6.669c-1.839-1.839-4.838-1.839-6.662,0l-3.346,3.331c-1.839,1.831-1.824,4.83,0.015,6.677l6.797,6.797
		c-1.447,2.502-2.517,5.245-3.135,8.139H6.985c-2.607,0-4.717,2.11-4.717,4.718v4.718c0,2.592,2.11,4.702,4.717,4.702h9.48
		c0.859,2.849,2.155,5.471,3.813,7.853l-6.405,6.405c-1.854,1.854-1.854,4.846-0.015,6.677l3.331,3.331
		c1.839,1.839,4.838,1.839,6.677,0l7.159-7.159c2.412,1.19,5.034,2.064,7.792,2.518v9.856c0,2.607,2.095,4.718,4.702,4.718h4.717
		c2.607,0,4.718-2.11,4.718-4.718v-11.078c2.381-0.844,4.627-1.967,6.658-3.398l7.597,7.604c1.838,1.839,4.822,1.839,6.677,0
		l3.331-3.338c1.838-1.839,1.838-4.823-0.016-6.67l-8.319-8.334c1.024-2.072,1.809-4.28,2.306-6.617h11.229
		c2.607,0,4.718-2.095,4.732-4.717v-4.71C87.134,77.157,85.023,75.04,82.416,75.04z M43.535,95.078
		c-6.511,0-11.786-5.26-11.786-11.786c0-6.511,5.275-11.771,11.786-11.771s11.786,5.261,11.786,11.771
		C55.321,89.818,50.046,95.078,43.535,95.078z"/>
	<path fill="#1D1D1B" d="M122.718,24.015h-7.521c-0.452-1.432-1.085-2.804-1.839-4.069l4.989-5.004c1.175-1.161,1.175-3.06,0-4.235
		l-2.126-2.11c-1.175-1.176-3.074-1.176-4.234,0l-5.079,5.064c-1.372-0.784-2.864-1.387-4.446-1.793V5.273
		c0-1.65-1.342-3.007-3-3.007h-2.999c-1.643,0-2.999,1.356-2.999,3.007v6.594c-1.719,0.437-3.331,1.123-4.823,2.02l-4.25-4.235
		c-1.16-1.176-3.075-1.176-4.235,0l-2.125,2.11c-1.176,1.175-1.16,3.075,0,4.25l4.325,4.326c-0.919,1.598-1.598,3.338-1.989,5.185
		h-5.651c-1.658,0-3,1.342-3,3v3c0,1.658,1.342,2.999,3,2.999h6.028c0.558,1.809,1.371,3.474,2.427,4.989l-4.069,4.084
		c-1.176,1.176-1.176,3.075-0.016,4.25l2.125,2.11c1.176,1.176,3.075,1.176,4.251,0l4.552-4.552
		c1.537,0.753,3.194,1.312,4.958,1.598v6.27c0,1.658,1.342,3.007,2.999,3.014h3c1.657-0.007,2.999-1.356,2.999-3.014V46.23
		c1.507-0.542,2.939-1.251,4.235-2.17l4.838,4.838c1.176,1.176,3.06,1.176,4.25,0l2.11-2.125c1.176-1.161,1.176-3.06,0-4.243
		l-5.306-5.298c0.663-1.326,1.161-2.728,1.478-4.205h7.144c1.658,0,3-1.341,3.015-3.007v-2.999
		C125.718,25.371,124.376,24.015,122.718,24.015z M97.97,36.773c-4.145,0-7.505-3.354-7.505-7.499c0-4.145,3.36-7.498,7.505-7.498
		c4.146,0,7.506,3.354,7.506,7.498C105.476,33.419,102.115,36.773,97.97,36.773z"/>
</g>
</svg>
