<?xml version="1.0" encoding="utf-8"?>
<!-- Generator: Adobe Illustrator 16.0.4, SVG Export Plug-In . SVG Version: 6.00 Build 0)  -->
<!DOCTYPE svg PUBLIC "-//W3C//DTD SVG 1.1//EN" "http://www.w3.org/Graphics/SVG/1.1/DTD/svg11.dtd">
<svg version="1.1" id="Layer_1" xmlns="http://www.w3.org/2000/svg" xmlns:xlink="http://www.w3.org/1999/xlink" x="0px" y="0px"
	 width="128px" height="128px" viewBox="0 0 128 128" enable-background="new 0 0 128 128" xml:space="preserve">
<g>
	<path fill="#1D1D1B" d="M111.275,42.713l0.045-0.437C111.32,22.793,95.526,7,76.043,7c-13.09,0-24.39,7.211-30.476,17.807
		c-2.641-1.317-5.565-2.129-8.72-2.129c-10.825,0-19.598,8.774-19.598,19.599l0.046,0.437C7.955,48.156,1.57,58.177,1.57,69.715
		c0,17.247,14.109,31.356,31.357,31.356h7.839v-7.84h-7.839c-12.969,0-23.518-10.549-23.518-23.517
		c0-8.222,4.532-15.97,11.835-20.227l3.889-2.273v-4.501l-0.039-0.819c0.2-6.309,5.397-11.376,11.751-11.376
		c1.73,0,3.483,0.444,5.214,1.302l6.622,3.307l3.682-6.415c4.992-8.682,13.841-13.872,23.678-13.872
		c14.976,0,27.178,12.05,27.438,26.962l-0.045,0.291v5.122l3.889,2.273c7.303,4.257,11.836,12.004,11.836,20.227
		c0,12.968-10.55,23.517-23.519,23.517h-7.839v7.84h7.839c17.248,0,31.357-14.109,31.357-31.356
		C126.999,58.177,120.614,48.156,111.275,42.713z"/>
	<polygon fill="#1D1D1B" points="64.286,116.75 87.803,85.393 72.125,85.393 72.125,46.196 56.446,46.196 56.446,85.393 
		40.768,85.393 	"/>
</g>
</svg>
