<?xml version="1.0" encoding="utf-8"?>
<!-- Generator: Adobe Illustrator 16.0.4, SVG Export Plug-In . SVG Version: 6.00 Build 0)  -->
<!DOCTYPE svg PUBLIC "-//W3C//DTD SVG 1.1//EN" "http://www.w3.org/Graphics/SVG/1.1/DTD/svg11.dtd">
<svg version="1.1" id="Layer_1" xmlns="http://www.w3.org/2000/svg" xmlns:xlink="http://www.w3.org/1999/xlink" x="0px" y="0px"
	 width="28px" height="28px" viewBox="-241.5 460.5 28 28" enable-background="new -241.5 460.5 28 28" xml:space="preserve">
<path fill-rule="evenodd" clip-rule="evenodd" d="M-214.4,464.5H-240.6c-0.497,0-0.9,0.403-0.9,0.9v18.2c0,0.497,0.403,0.9,0.9,0.9
	h26.199c0.497,0,0.9-0.403,0.9-0.9v-18.2C-213.5,464.903-213.903,464.5-214.4,464.5z M-215.374,467.664l-11.627,9.978
	c-0.005,0.007-0.006,0.015-0.012,0.021c-0.079,0.092-0.182,0.145-0.291,0.179c-0.016,0.006-0.032,0.009-0.049,0.013
	c-0.049,0.012-0.097,0.019-0.147,0.018c-0.05,0.001-0.098-0.006-0.147-0.018c-0.017-0.004-0.033-0.007-0.049-0.013
	c-0.108-0.034-0.211-0.087-0.291-0.179c-0.006-0.007-0.007-0.015-0.012-0.021l-11.628-9.978c-0.262-0.225-0.292-0.619-0.068-0.882
	c0.225-0.261,0.62-0.292,0.881-0.067l11.313,9.707l11.313-9.707c0.262-0.225,0.656-0.194,0.881,0.067
	C-215.081,467.045-215.111,467.439-215.374,467.664z"/>
</svg>
