<?xml version="1.0" encoding="utf-8"?>
<!-- Generator: Adobe Illustrator 16.0.4, SVG Export Plug-In . SVG Version: 6.00 Build 0)  -->
<!DOCTYPE svg PUBLIC "-//W3C//DTD SVG 1.1//EN" "http://www.w3.org/Graphics/SVG/1.1/DTD/svg11.dtd">
<svg version="1.1" id="Layer_1" xmlns="http://www.w3.org/2000/svg" xmlns:xlink="http://www.w3.org/1999/xlink" x="0px" y="0px"
	 width="128px" height="128px" viewBox="0 0 128 128" enable-background="new 0 0 128 128" xml:space="preserve">
<g>
	<path d="M67.729,74.824c-3.34-2.365-9.724-8.116-9.724-11.499c0-3.971,1.13-5.917,7.093-10.578
		c6.113-4.779,10.442-11.495,10.442-19.304c0-9.299-4.144-18.361-11.915-21.355h11.719l8.273-5.979H46.646
		c-16.569,0-32.17,12.557-32.17,27.099c0,14.862,11.301,26.862,28.161,26.862c1.175,0,2.311-0.027,3.428-0.105
		c-1.092,2.092-1.882,4.457-1.882,6.9c0,4.131,2.225,7.483,5.035,10.219c-2.126,0-4.178,0.063-6.405,0.063
		c-20.533,0-36.334,13.07-36.334,26.63c0,13.352,17.325,21.703,37.849,21.703c23.401,0,36.332-13.275,36.332-26.63
		C80.659,88.141,77.499,81.728,67.729,74.824z M47.983,56.298c-9.52-0.284-18.578-10.653-20.22-23.158
		c-1.645-12.509,4.747-22.08,14.268-21.8c9.519,0.288,18.578,10.32,20.218,22.829C63.892,46.678,57.507,56.586,47.983,56.298z
		 M44.253,119.576c-14.192,0-24.44-8.98-24.44-19.771c0-10.575,12.714-19.379,26.906-19.226c3.311,0.037,6.397,0.568,9.198,1.475
		c7.696,5.361,13.226,8.382,14.783,14.491c0.296,1.239,0.456,2.508,0.456,3.81C71.156,111.15,64.207,119.576,44.253,119.576z"/>
	<polygon points="107.127,57.387 107.127,43 95.544,43 95.544,57.387 81.152,57.387 81.152,68.972 95.544,68.972 95.544,83.366 
		107.127,83.366 107.127,68.972 121.521,68.972 121.521,57.387 	"/>
</g>
</svg>
