<?xml version="1.0" encoding="utf-8"?>
<!-- Generator: Adobe Illustrator 16.0.4, SVG Export Plug-In . SVG Version: 6.00 Build 0)  -->
<!DOCTYPE svg PUBLIC "-//W3C//DTD SVG 1.1//EN" "http://www.w3.org/Graphics/SVG/1.1/DTD/svg11.dtd">
<svg version="1.1" id="Layer_1" xmlns="http://www.w3.org/2000/svg" xmlns:xlink="http://www.w3.org/1999/xlink" x="0px" y="0px"
	 width="128px" height="128px" viewBox="0 0 128 128" enable-background="new 0 0 128 128" xml:space="preserve">
<path d="M100.424,4.627H27.577c-12.656,0-22.951,10.292-22.951,22.947v24.239v48.615c0,12.653,10.295,22.944,22.951,22.944h72.847
	c12.654,0,22.95-10.291,22.95-22.944V51.813V27.574C123.374,14.919,113.078,4.627,100.424,4.627z M107.01,18.314l2.627-0.01v2.616
	v17.513l-20.068,0.064L89.5,18.369L107.01,18.314z M47.056,51.813C50.855,46.549,57.026,43.1,64,43.1
	c6.976,0,13.146,3.45,16.943,8.714c2.482,3.437,3.962,7.637,3.962,12.19c0,11.523-9.382,20.894-20.905,20.894
	s-20.899-9.371-20.899-20.894C43.101,59.451,44.581,55.25,47.056,51.813z M111.804,100.429c0,6.276-5.099,11.374-11.38,11.374
	H27.577c-6.28,0-11.379-5.098-11.379-11.374V51.813h17.728c-1.536,3.766-2.394,7.878-2.394,12.19
	c0,17.901,14.563,32.472,32.468,32.472s32.468-14.571,32.468-32.472c0-4.312-0.864-8.424-2.393-12.19h17.729V100.429z"/>
</svg>
