<?xml version="1.0" encoding="utf-8"?>
<!-- Generator: Adobe Illustrator 16.0.4, SVG Export Plug-In . SVG Version: 6.00 Build 0)  -->
<!DOCTYPE svg PUBLIC "-//W3C//DTD SVG 1.1//EN" "http://www.w3.org/Graphics/SVG/1.1/DTD/svg11.dtd">
<svg version="1.1" id="Layer_1" xmlns="http://www.w3.org/2000/svg" xmlns:xlink="http://www.w3.org/1999/xlink" x="0px" y="0px"
	 width="128px" height="128px" viewBox="0 0 128 128" enable-background="new 0 0 128 128" xml:space="preserve">
<path fill="#1D1D1B" d="M88.555,79.415c2.249,2.249,2.249,5.894,0,8.143l-0.129,0.128c-2.248,2.249-5.893,2.249-8.141,0
	L39.84,47.241c-2.249-2.249-2.249-5.894,0-8.142l0.129-0.128c2.248-2.249,5.893-2.249,8.141,0L88.555,79.415z"/>
<path fill="#1D1D1B" d="M9.985,8.997L9.858,9.124c-8.943,8.943-9.282,23.664-0.339,32.605l15.9,15.9
	c6.53,6.532,16.439,8.169,24.248,5.642L39.406,53.01c-2.385-0.318-4.006-1.94-5.718-3.65l-15.9-15.9
	c-4.461-4.462-4.122-11.604,0.339-16.066l0.128-0.127c4.461-4.461,11.612-4.809,16.074-0.347l15.9,15.899
	c1.816,1.817,2.496,4.564,2.86,6.997l10.213,10.213c3.658-8.747,0.857-17.751-5.837-24.446l-15.9-15.9
	C32.622,0.74,18.928,0.054,9.985,8.997z"/>
<path fill="#1D1D1B" d="M117.893,118.177l0.127-0.127c8.943-8.943,9.132-22.78,0.188-31.723l-15.9-15.9
	c-6.53-6.532-15.405-9.203-24.248-5.642l10.262,10.262c2.384,0.316,5.04,0.905,6.751,2.615l15.898,15.9
	c4.462,4.461,3.241,11.755-1.221,16.217l-0.127,0.127c-4.461,4.462-10.73,4.657-15.191,0.195l-15.9-15.899
	c-1.816-1.816-3.529-3.529-3.895-5.962L64.424,78.026c-2.625,7.714-0.857,17.75,5.838,24.446l15.899,15.899
	C95.105,127.315,108.949,127.12,117.893,118.177z"/>
</svg>
