<?xml version="1.0" encoding="utf-8"?>
<!-- Generator: Adobe Illustrator 16.0.4, SVG Export Plug-In . SVG Version: 6.00 Build 0)  -->
<!DOCTYPE svg PUBLIC "-//W3C//DTD SVG 1.1//EN" "http://www.w3.org/Graphics/SVG/1.1/DTD/svg11.dtd">
<svg version="1.1" id="Layer_1" xmlns="http://www.w3.org/2000/svg" xmlns:xlink="http://www.w3.org/1999/xlink" x="0px" y="0px"
	 width="128px" height="128px" viewBox="0 0 128 128" enable-background="new 0 0 128 128" xml:space="preserve">
<path d="M29.084,118.565H4.762V40.738h24.323V118.565z M16.296,31.001h-0.173c-8.8,0-14.507-5.951-14.507-13.486
	C1.616,9.827,7.493,4,16.47,4c8.969,0,14.491,5.811,14.665,13.492C31.135,25.032,25.439,31.001,16.296,31.001z M126.384,118.565
	H98.808V78.289c0-10.541-4.312-17.733-13.799-17.733c-7.255,0-11.287,4.854-13.168,9.533c-0.7,1.676-0.595,4.02-0.595,6.363v42.113
	h-27.32c0,0,0.355-71.344,0-77.828h27.32v12.213c1.614-5.341,10.343-12.965,24.282-12.965c17.278,0,30.855,11.199,30.855,35.303
	V118.565z"/>
</svg>
