<?xml version="1.0" encoding="utf-8"?>
<!-- Generator: Adobe Illustrator 16.0.4, SVG Export Plug-In . SVG Version: 6.00 Build 0)  -->
<!DOCTYPE svg PUBLIC "-//W3C//DTD SVG 1.1//EN" "http://www.w3.org/Graphics/SVG/1.1/DTD/svg11.dtd">
<svg version="1.1" id="Layer_1" xmlns="http://www.w3.org/2000/svg" xmlns:xlink="http://www.w3.org/1999/xlink" x="0px" y="0px"
	 width="128px" height="128px" viewBox="0 0 128 128" enable-background="new 0 0 128 128" xml:space="preserve">
<path fill="#1D1D1B" d="M100.808,51.052V39.629c0-20.017-16.503-36.296-36.808-36.296c-20.289,0-36.808,16.279-36.808,36.296v11.422
	h-8.179v73.615h89.974V51.052H100.808z M69.703,108.309H56.156l3.451-18.764c-2.029-1.174-3.451-3.275-3.451-5.775
	c0-3.746,3.035-6.781,6.773-6.781c3.739,0,6.773,3.035,6.773,6.781c0,2.5-1.422,4.602-3.451,5.775L69.703,108.309z M84.449,51.052
	H43.552V39.629c0-10.808,9.361-19.938,20.448-19.938s20.449,9.13,20.449,19.938V51.052z"/>
</svg>
