<?xml version="1.0" encoding="utf-8"?>
<!-- Generator: Adobe Illustrator 16.0.4, SVG Export Plug-In . SVG Version: 6.00 Build 0)  -->
<!DOCTYPE svg PUBLIC "-//W3C//DTD SVG 1.1//EN" "http://www.w3.org/Graphics/SVG/1.1/DTD/svg11.dtd">
<svg version="1.1" id="Layer_1" xmlns="http://www.w3.org/2000/svg" xmlns:xlink="http://www.w3.org/1999/xlink" x="0px" y="0px"
	 width="128px" height="128px" viewBox="0 0 128 128" enable-background="new 0 0 128 128" xml:space="preserve">
<path d="M122.006,33.879c-0.274-4.993-1.593-9.273-3.635-12.909c-5.94-10.561-18.062-15.554-29.101-15.554H29.807L3.45,122.583
	h34.907l8.526-38.78h24.968c0.271,0,0.571-0.035,0.877-0.035c14.164-0.238,26.9-5.501,35.932-14.912
	c5.877-6.178,10.221-14.059,12.333-23.536C121.869,41.176,122.174,37.342,122.006,33.879z M88.215,45.32
	c-0.947,3.878-3.162,7.403-6.081,10.189c-1.049,0.986-2.234,1.87-3.459,2.649c-3.161,1.972-6.792,3.193-10.428,3.193H51.875
	l6.934-29.714l0.571-2.348h17.087c2.946,0,5.529,0.888,7.606,2.348C87.94,34.454,89.85,39.482,88.215,45.32z"/>
</svg>
