<?xml version="1.0" encoding="utf-8"?>
<!-- Generator: Adobe Illustrator 16.0.4, SVG Export Plug-In . SVG Version: 6.00 Build 0)  -->
<!DOCTYPE svg PUBLIC "-//W3C//DTD SVG 1.1//EN" "http://www.w3.org/Graphics/SVG/1.1/DTD/svg11.dtd">
<svg version="1.1" id="Layer_1" xmlns="http://www.w3.org/2000/svg" xmlns:xlink="http://www.w3.org/1999/xlink" x="0px" y="0px"
	 width="128px" height="128px" viewBox="0 0 128 128" enable-background="new 0 0 128 128" xml:space="preserve">
<path d="M64.278,5.101c-32.256,0-58.415,26.153-58.415,58.411c0,23.917,14.385,44.466,34.971,53.5
	c-0.167-4.075-0.03-8.977,1.013-13.413c1.125-4.74,7.513-31.829,7.513-31.829s-1.863-3.729-1.863-9.241
	c0-8.656,5.021-15.121,11.266-15.121c5.312,0,7.88,3.988,7.88,8.77c0,5.344-3.406,13.33-5.159,20.728
	C60.02,83.102,64.59,88.154,70.7,88.154c11.069,0,18.522-14.21,18.522-31.054c0-12.8-8.624-22.383-24.303-22.383
	c-17.718,0-28.756,13.213-28.756,27.97c0,5.091,1.498,8.679,3.846,11.457c1.083,1.282,1.232,1.79,0.843,3.261
	c-0.279,1.064-0.924,3.661-1.191,4.685c-0.389,1.479-1.585,2.009-2.921,1.463c-8.163-3.333-11.962-12.269-11.962-22.314
	c0-16.591,13.989-36.495,41.742-36.495c22.305,0,36.979,16.144,36.979,33.462c0,22.921-12.736,40.031-31.52,40.031
	c-6.301,0-12.235-3.405-14.264-7.276c0,0-3.393,13.454-4.112,16.055c-1.234,4.503-3.662,9.003-5.878,12.51
	c5.253,1.554,10.804,2.4,16.555,2.4c32.259,0,58.408-26.156,58.408-58.414C122.687,31.253,96.537,5.101,64.278,5.101z"/>
</svg>
