<?xml version="1.0" encoding="utf-8"?>
<!-- Generator: Adobe Illustrator 16.0.4, SVG Export Plug-In . SVG Version: 6.00 Build 0)  -->
<!DOCTYPE svg PUBLIC "-//W3C//DTD SVG 1.1//EN" "http://www.w3.org/Graphics/SVG/1.1/DTD/svg11.dtd">
<svg version="1.1" id="Layer_1" xmlns="http://www.w3.org/2000/svg" xmlns:xlink="http://www.w3.org/1999/xlink" x="0px" y="0px"
	 width="128px" height="128px" viewBox="0 0 128 128" enable-background="new 0 0 128 128" xml:space="preserve">
<path fill="#1D1D1B" d="M124.508,107.948L103,86.44c5.451-8.501,8.653-18.588,8.653-29.437c0-30.184-24.466-54.65-54.65-54.65
	s-54.65,24.466-54.65,54.65s24.466,54.651,54.65,54.651c10.849,0,20.932-3.202,29.433-8.654l21.504,21.509
	c1.518,1.517,4.003,1.517,5.521,0l11.047-11.04C126.025,111.943,126.025,109.458,124.508,107.948z M57.003,96.039
	c-21.523,0-39.036-17.513-39.036-39.036S35.48,17.967,57.003,17.967S96.039,35.48,96.039,57.003S78.526,96.039,57.003,96.039z"/>
</svg>
