<?xml version="1.0" encoding="utf-8"?>
<!-- Generator: Adobe Illustrator 16.0.4, SVG Export Plug-In . SVG Version: 6.00 Build 0)  -->
<!DOCTYPE svg PUBLIC "-//W3C//DTD SVG 1.1//EN" "http://www.w3.org/Graphics/SVG/1.1/DTD/svg11.dtd">
<svg version="1.1" id="Layer_1" xmlns="http://www.w3.org/2000/svg" xmlns:xlink="http://www.w3.org/1999/xlink" x="0px" y="0px"
	 width="28px" height="28px" viewBox="-241.5 460.5 28 28" enable-background="new -241.5 460.5 28 28" xml:space="preserve">
<path fill="#000100" d="M-216.399,472.288h-10.683l-4.311-9.576l-1.824,0.821l3.941,8.755h-9.324c-0.497,0-0.9,0.403-0.9,0.9v2.199
	c0,0.497,0.403,0.9,0.9,0.9h1.219l0.981,9.1c0,0.497,0.403,0.9,0.9,0.9h16c0.497,0,0.899-0.403,0.899-0.9l0.981-9.1h1.218
	c0.497,0,0.9-0.403,0.9-0.9v-2.199C-215.499,472.691-215.901,472.288-216.399,472.288z M-232.048,484.288h-0.2
	c-0.497,0-0.936-0.403-0.979-0.9l-0.543-6.198c-0.043-0.497,0.323-0.9,0.82-0.9h0.2c0.497,0,0.937,0.403,0.979,0.9l0.543,6.198
	C-231.184,483.885-231.551,484.288-232.048,484.288z M-227.538,473.178c0.307,0,0.554,0.249,0.554,0.556
	c0,0.306-0.248,0.555-0.554,0.555s-0.555-0.249-0.555-0.555C-228.092,473.427-227.844,473.178-227.538,473.178z M-226.499,483.388
	c0,0.497-0.402,0.9-0.9,0.9h-0.199c-0.498,0-0.9-0.403-0.9-0.9v-6.199c0-0.497,0.402-0.9,0.9-0.9h0.199c0.498,0,0.9,0.403,0.9,0.9
	V483.388z M-221.771,483.388c-0.043,0.497-0.479,0.9-0.979,0.9h-0.199c-0.498,0-0.865-0.403-0.822-0.9l0.543-6.198
	c0.043-0.497,0.48-0.9,0.979-0.9h0.199c0.498,0,0.864,0.403,0.821,0.9L-221.771,483.388z"/>
</svg>
