<?xml version="1.0" encoding="utf-8"?>
<!-- Generator: Adobe Illustrator 16.0.4, SVG Export Plug-In . SVG Version: 6.00 Build 0)  -->
<!DOCTYPE svg PUBLIC "-//W3C//DTD SVG 1.1//EN" "http://www.w3.org/Graphics/SVG/1.1/DTD/svg11.dtd">
<svg version="1.1" id="Layer_1" xmlns="http://www.w3.org/2000/svg" xmlns:xlink="http://www.w3.org/1999/xlink" x="0px" y="0px"
	 width="28px" height="28px" viewBox="-241.5 460.5 28 28" enable-background="new -241.5 460.5 28 28" xml:space="preserve">
<path d="M-221.562,460.5h-11.875c-1.1,0-2,0.9-2,2v24c0,1.1,0.9,2,2,2h11.875c1.1,0,2-0.9,2-2v-24
	C-219.562,461.4-220.463,460.5-221.562,460.5z M-227.5,487.875c-0.759,0-1.375-0.615-1.375-1.375s0.616-1.375,1.375-1.375
	c0.76,0,1.375,0.615,1.375,1.375S-226.74,487.875-227.5,487.875z M-221.5,484.5h-12v-20h12V484.5z"/>
</svg>
