<?xml version="1.0" encoding="utf-8"?>
<!-- Generator: Adobe Illustrator 16.0.4, SVG Export Plug-In . SVG Version: 6.00 Build 0)  -->
<!DOCTYPE svg PUBLIC "-//W3C//DTD SVG 1.1//EN" "http://www.w3.org/Graphics/SVG/1.1/DTD/svg11.dtd">
<svg version="1.1" id="Layer_1" xmlns="http://www.w3.org/2000/svg" xmlns:xlink="http://www.w3.org/1999/xlink" x="0px" y="0px"
	 width="128px" height="128px" viewBox="0 0 128 128" enable-background="new 0 0 128 128" xml:space="preserve">
<g>
	<g>
		<path d="M124.61,76.202c0-11.3-8.079-20.61-18.519-22.013c-0.27-17.285-13.57-31.216-29.974-31.216
			c-10.619,0-19.922,5.839-25.262,14.643c-2.354-1.11-5.009-1.771-7.785-1.771c-10.069,0-18.222,8.136-18.272,18.158
			c-11.563,0.202-20.88,10.055-20.88,22.198c0,12.269,9.516,22.202,21.244,22.202c0.307,0,0.607-0.021,0.921-0.047v0.047h78.813
			V98.32C115.918,97.504,124.61,87.928,124.61,76.202z"/>
	</g>
</g>
</svg>
