<?xml version="1.0" encoding="utf-8"?>
<!-- Generator: Adobe Illustrator 16.0.4, SVG Export Plug-In . SVG Version: 6.00 Build 0)  -->
<!DOCTYPE svg PUBLIC "-//W3C//DTD SVG 1.1//EN" "http://www.w3.org/Graphics/SVG/1.1/DTD/svg11.dtd">
<svg version="1.1" id="Layer_1" xmlns="http://www.w3.org/2000/svg" xmlns:xlink="http://www.w3.org/1999/xlink" x="0px" y="0px"
	 width="128px" height="128px" viewBox="0 0 128 128" enable-background="new 0 0 128 128" xml:space="preserve">
<path d="M64.177,4.262v30.198h28.345v18.754H64.177v30.635c0,6.934,0.361,11.378,1.095,13.338c0.729,1.976,2.093,3.542,4.104,4.721
	c2.636,1.583,5.651,2.369,9.061,2.369c6.052,0,12.062-1.972,18.05-5.899v18.853c-5.112,2.393-9.728,4.086-13.865,5.053
	c-4.142,0.979-8.615,1.456-13.425,1.456c-5.469,0-10.296-0.69-14.488-2.062c-4.193-1.392-7.78-3.348-10.735-5.902
	c-2.967-2.555-5.028-5.277-6.166-8.152c-1.149-2.871-1.719-7.043-1.719-12.504V53.214H22.876V36.309
	c4.707-1.529,8.72-3.718,12.067-6.557c3.342-2.85,6.038-6.265,8.056-10.264c2.021-3.981,3.422-9.067,4.185-15.227H64.177z"/>
</svg>
