<?xml version="1.0" encoding="utf-8"?>
<!-- Generator: Adobe Illustrator 16.0.4, SVG Export Plug-In . SVG Version: 6.00 Build 0)  -->
<!DOCTYPE svg PUBLIC "-//W3C//DTD SVG 1.1//EN" "http://www.w3.org/Graphics/SVG/1.1/DTD/svg11.dtd">
<svg version="1.1" id="Layer_1" xmlns="http://www.w3.org/2000/svg" xmlns:xlink="http://www.w3.org/1999/xlink" x="0px" y="0px"
	 width="128px" height="128px" viewBox="0 0 128 128" enable-background="new 0 0 128 128" xml:space="preserve">
<g>
	<g>
		<path d="M128.385,24.541c-4.749,2.294-9.798,3.779-15.15,4.465c5.45-3.511,9.638-9.038,11.62-15.664
			c-5.101,3.232-10.747,5.544-16.763,6.895c-4.785-5.537-11.655-8.987-19.213-8.987c-14.548,0-26.337,12.681-26.337,28.362
			c0,2.202,0.228,4.38,0.665,6.429C41.358,44.913,21.921,33.579,8.922,16.456c-2.257,4.176-3.551,9.038-3.551,14.254
			c0,9.814,4.644,18.548,11.724,23.559c-4.325-0.177-8.387-1.384-11.934-3.527c0,0.118,0,0.263,0,0.387
			c0,13.713,9.077,25.156,21.125,27.806c-2.206,0.645-4.54,0.936-6.958,0.936c-1.692,0-3.299-0.118-4.925-0.503
			C17.742,90.677,27.478,98.887,39,99.056c-9.016,7.641-20.37,12.131-32.711,12.131c-2.131,0-4.235-0.122-6.29-0.394
			c11.653,8.085,25.472,12.791,40.379,12.791c48.441,0,74.948-43.222,74.948-80.69c0-1.197-0.028-2.412-0.087-3.627
			C120.38,35.216,124.854,30.212,128.385,24.541z"/>
	</g>
</g>
</svg>
