<?xml version="1.0" encoding="utf-8"?>
<!-- Generator: Adobe Illustrator 16.0.4, SVG Export Plug-In . SVG Version: 6.00 Build 0)  -->
<!DOCTYPE svg PUBLIC "-//W3C//DTD SVG 1.1//EN" "http://www.w3.org/Graphics/SVG/1.1/DTD/svg11.dtd">
<svg version="1.1" id="Layer_1" xmlns="http://www.w3.org/2000/svg" xmlns:xlink="http://www.w3.org/1999/xlink" x="0px" y="0px"
	 width="128px" height="128px" viewBox="0 0 128 128" enable-background="new 0 0 128 128" xml:space="preserve">
<path fill="#1D1D1B" d="M90.25,6.462c-18.604,0-33.75,15.088-33.75,33.641V51.69H4v67.5h82.5v-67.5h-15V40.103
	c0-10.283,8.408-18.641,18.75-18.641S109,29.82,109,40.103V51.69h15V40.103C124,21.551,108.868,6.462,90.25,6.462z M51.139,104.189
	H38.541l3.281-17.607c-1.919-1.084-3.281-3.068-3.281-5.435c0-3.479,2.827-6.299,6.299-6.299c3.486,0,6.298,2.82,6.298,6.299
	c0,2.373-1.362,4.351-3.281,5.435L51.139,104.189z"/>
</svg>
