<?xml version="1.0" encoding="utf-8"?>
<!-- Generator: Adobe Illustrator 16.0.4, SVG Export Plug-In . SVG Version: 6.00 Build 0)  -->
<!DOCTYPE svg PUBLIC "-//W3C//DTD SVG 1.1//EN" "http://www.w3.org/Graphics/SVG/1.1/DTD/svg11.dtd">
<svg version="1.1" id="Layer_1" xmlns="http://www.w3.org/2000/svg" xmlns:xlink="http://www.w3.org/1999/xlink" x="0px" y="0px"
	 width="128px" height="128px" viewBox="0 0 128 128" enable-background="new 0 0 128 128" xml:space="preserve">
<path d="M120.201,39.903c-0.49,10.941-8.148,25.902-22.928,44.878c-15.299,19.85-28.258,29.766-38.847,29.766
	c-6.552,0-12.102-6.035-16.636-18.142c-3.038-11.104-6.056-22.213-9.084-33.287c-3.373-12.116-6.983-18.166-10.848-18.166
	c-0.841,0-3.773,1.767-8.826,5.302l-5.291-6.82c5.544-4.862,11.009-9.747,16.397-14.612c7.385-6.394,12.934-9.749,16.643-10.096
	c8.728-0.848,14.117,5.125,16.145,17.899c2.164,13.792,3.689,22.369,4.528,25.733c2.528,11.427,5.293,17.134,8.322,17.134
	c2.346,0,5.879-3.69,10.588-11.081c4.711-7.404,7.225-13.032,7.566-16.909c0.672-6.385-1.848-9.564-7.566-9.564
	c-2.686,0-5.463,0.569-8.32,1.762c5.557-17.992,16.145-26.736,31.779-26.226C115.416,17.802,120.883,25.289,120.201,39.903z"/>
</svg>
