<?xml version="1.0" encoding="utf-8"?>
<!-- Generator: Adobe Illustrator 16.0.4, SVG Export Plug-In . SVG Version: 6.00 Build 0)  -->
<!DOCTYPE svg PUBLIC "-//W3C//DTD SVG 1.1//EN" "http://www.w3.org/Graphics/SVG/1.1/DTD/svg11.dtd">
<svg version="1.1" id="Layer_1" xmlns="http://www.w3.org/2000/svg" xmlns:xlink="http://www.w3.org/1999/xlink" x="0px" y="0px"
	 width="28px" height="28px" viewBox="-241.5 460.5 28 28" enable-background="new -241.5 460.5 28 28" xml:space="preserve">
<g>
	<path fill-rule="evenodd" clip-rule="evenodd" d="M-235.301,473.676l5.225,2.548c1.005,0.489,0.85,1.968-0.235,2.238l-5.64,1.407
		c-0.704,0.175-1.398-0.311-1.481-1.03c-0.177-1.541-0.002-3.062,0.472-4.472C-236.732,473.684-235.95,473.36-235.301,473.676z"/>
	<path fill-rule="evenodd" clip-rule="evenodd" d="M-233.209,484.432l3.889-4.319c0.748-0.831,2.125-0.274,2.086,0.844l-0.201,5.811
		c-0.025,0.724-0.683,1.261-1.397,1.141c-1.503-0.253-2.925-0.834-4.166-1.686C-233.594,485.812-233.693,484.97-233.209,484.432z"/>
	<path fill-rule="evenodd" clip-rule="evenodd" d="M-223.989,478.685l5.527,1.796c0.688,0.224,1.025,1.002,0.713,1.655
		c-0.648,1.358-1.59,2.571-2.764,3.542c-0.561,0.461-1.396,0.325-1.781-0.289l-3.081-4.931
		C-225.967,479.51-225.053,478.338-223.989,478.685z"/>
	<path fill-rule="evenodd" clip-rule="evenodd" d="M-218.368,475.158l-5.588,1.602c-1.075,0.308-1.948-0.894-1.321-1.82l3.249-4.82
		c0.404-0.598,1.242-0.708,1.785-0.231c1.113,0.983,2.025,2.213,2.643,3.636C-217.312,474.19-217.671,474.958-218.368,475.158z"/>
	<path fill-rule="evenodd" clip-rule="evenodd" d="M-231.424,461.599c-1.005,0.27-1.964,0.625-2.872,1.058
		c-0.629,0.3-0.867,1.076-0.519,1.68l5.461,9.459c0.613,1.062,2.235,0.627,2.235-0.599v-10.922c0-0.697-0.595-1.25-1.289-1.195
		C-229.41,461.159-230.418,461.33-231.424,461.599z"/>
</g>
</svg>
