<?xml version="1.0" encoding="utf-8"?>
<!-- Generator: Adobe Illustrator 16.0.4, SVG Export Plug-In . SVG Version: 6.00 Build 0)  -->
<!DOCTYPE svg PUBLIC "-//W3C//DTD SVG 1.1//EN" "http://www.w3.org/Graphics/SVG/1.1/DTD/svg11.dtd">
<svg version="1.1" id="Layer_1" xmlns="http://www.w3.org/2000/svg" xmlns:xlink="http://www.w3.org/1999/xlink" x="0px" y="0px"
	 width="128px" height="128px" viewBox="0 0 128 128" enable-background="new 0 0 128 128" xml:space="preserve">
<path d="M125.732,33.65c-0.072-0.49-0.173-0.969-0.304-1.433c-0.06-0.22-0.123-0.441-0.199-0.657
	c-1.633-4.849-6.211-8.348-11.61-8.35h0.842c0,0-21.714-3.277-50.603-3.41c-28.884,0.133-50.602,3.41-50.602,3.41h0.844
	c-5.402,0.002-9.977,3.501-11.615,8.35c-0.072,0.216-0.135,0.437-0.198,0.657c-0.127,0.464-0.229,0.943-0.3,1.433
	c-0.789,5.632-2.089,16.875-2.207,30.345c0.118,13.479,1.418,24.711,2.207,30.354c0.072,0.489,0.173,0.962,0.3,1.426
	c0.062,0.229,0.126,0.438,0.198,0.658c1.638,4.854,6.213,8.353,11.615,8.353h-0.844c0,0,21.717,3.278,50.602,3.414
	c28.889-0.136,50.603-3.414,50.603-3.414h-0.842c5.399,0,9.978-3.498,11.61-8.353c0.076-0.22,0.14-0.43,0.199-0.658
	c0.131-0.464,0.231-0.937,0.304-1.426c0.784-5.643,2.09-16.874,2.203-30.354C127.822,50.525,126.517,39.282,125.732,33.65z
	 M82.838,66.739L56.962,85.536c-0.54,0.396-1.186,0.6-1.828,0.6c-0.481,0-0.971-0.118-1.413-0.339
	c-1.043-0.535-1.701-1.611-1.701-2.785V45.433c0-1.175,0.658-2.248,1.701-2.781c1.038-0.53,2.295-0.429,3.24,0.256L82.838,61.7
	c0.809,0.586,1.282,1.523,1.282,2.519C84.12,65.22,83.646,66.152,82.838,66.739z"/>
</svg>
