<svg viewBox="0 0 100 100" xmlns="http://www.w3.org/2000/svg"><symbol viewBox="0 0 128 128" id="icon-arrow-right-circle"><title>arrow-right-circle</title> <path d="M63,6C30.703,6,4.5,32.203,4.5,64.5C4.5,96.812,30.703,123,63,123c32.312,0,58.5-26.188,58.5-58.5
	C121.5,32.203,95.312,6,63,6z M66.9,91.8V76.2c-23.4-7.8-31.201,0-39,15.6c0-39,23.4-46.8,39-46.8V29.4l31.2,31.2L66.9,91.8z"/> </symbol><symbol viewBox="-241.5 460.5 28 28" id="icon-arrows-in"><title>arrows-in</title> <polygon points="-229.5,462.499 -231.5,462.499 -231.5,469.185 -238.086,462.599 -239.5,464.014 -233.015,470.499 
	-239.5,470.499 -239.5,472.499 -231.5,472.499 -229.5,472.499 "/> <polygon points="-225.502,486.5 -223.502,486.5 -223.502,479.814 -216.916,486.4 -215.502,484.985 -221.987,478.5 
	-215.502,478.5 -215.502,476.5 -223.502,476.5 -225.502,476.5 "/> </symbol><symbol viewBox="-241.5 460.5 28 28" id="icon-arrows-out"><title>arrows-out</title> <polygon points="-239.5,472.5 -237.5,472.5 -237.5,465.814 -230.914,472.4 -229.5,470.985 -235.985,464.5 
	-229.5,464.5 -229.5,462.5 -237.5,462.5 -239.5,462.5 "/> <polygon points="-215.5,476.5 -217.5,476.5 -217.5,483.186 -224.086,476.6 -225.5,478.015 -219.015,484.5 
	-225.5,484.5 -225.5,486.5 -217.5,486.5 -215.5,486.5 "/> </symbol><symbol viewBox="0 0 128 128" id="icon-blogger"><title>blogger</title> <path fill-rule="evenodd" clip-rule="evenodd" d="M121.888,53.767l-0.966-2.012l-1.627-1.285c-2.146-1.681-12.948,0.12-15.884-2.53
	c-2.054-1.908-2.352-5.326-2.979-9.945c-1.161-8.995-1.904-9.457-3.308-12.491C92.023,14.707,78.231,6.572,68.745,5.453H43.034
	c-20.206,0-36.732,16.556-36.732,36.781v42.89c0,20.171,16.526,36.692,36.732,36.692h42.233c20.205,0,36.62-16.521,36.738-36.692
	l0.238-29.723L121.888,53.767z M43.505,35.496h20.366c3.896,0,7.045,3.149,7.045,7.007c0,3.845-3.149,7.037-7.045,7.037H43.505
	c-3.892,0-7.035-3.192-7.035-7.037C36.47,38.646,39.613,35.496,43.505,35.496z M84.908,91.57H43.505
	c-3.892,0-7.035-3.189-7.035-7.008c0-3.845,3.144-6.987,7.035-6.987h41.403c3.861,0,7.001,3.143,7.001,6.987
	C91.909,88.381,88.77,91.57,84.908,91.57z"/> </symbol><symbol viewBox="0 0 128 128" id="icon-check"><title>check</title> <polygon points="125.838,30.142 116.412,20.716 41.912,95.217 11.587,65.108 2.162,74.534 41.912,114 
	41.945,113.967 41.979,114 "/> </symbol><symbol viewBox="-241.5 460.5 28 28" id="icon-chevron-down"><title>chevron-down</title> <polygon points="-214.772,474.499 -217.6,471.671 -227.5,481.57 -237.398,471.671 -240.229,474.501 -227.5,487.228 
	"/> </symbol><symbol viewBox="-241.5 460.5 28 28" id="icon-chevron-left"><title>chevron-left</title> <polygon points="-227.499,487.228 -224.671,484.4 -234.57,474.5 -224.672,464.601 -227.5,461.771 -240.228,474.5 "/> </symbol><symbol viewBox="-241.5 460.5 28 28" id="icon-chevron-right"><title>chevron-right</title> <polygon points="-227.501,461.772 -230.329,464.6 -220.43,474.5 -230.329,484.398 -227.5,487.229 -214.772,474.5 "/> </symbol><symbol viewBox="-241.5 460.5 28 28" id="icon-chevron-up"><title>chevron-up</title> <polygon points="-240.228,474.502 -237.4,477.329 -227.501,467.43 -217.601,477.328 -214.771,474.5 -227.5,461.772 
	"/> </symbol><symbol viewBox="0 0 128 128" id="icon-cogs"><title>cogs</title> <g> <path d="M82.416,75.04H70.6c-0.708-2.269-1.703-4.408-2.908-6.397l7.852-7.86c1.854-1.831,1.854-4.823,0-6.669
		l-3.33-3.316c-1.854-1.838-4.838-1.838-6.678,0l-7.969,7.958c-2.155-1.228-4.491-2.17-6.978-2.818V45.582
		c0-2.607-2.095-4.717-4.703-4.717h-4.717c-2.592,0-4.718,2.11-4.718,4.717v10.354c-2.698,0.686-5.245,1.771-7.581,3.188
		l-6.677-6.669c-1.839-1.839-4.838-1.839-6.662,0l-3.346,3.331c-1.839,1.831-1.824,4.83,0.015,6.677l6.797,6.797
		c-1.447,2.502-2.517,5.245-3.135,8.139H6.985c-2.607,0-4.717,2.11-4.717,4.718v4.718c0,2.592,2.11,4.702,4.717,4.702h9.48
		c0.859,2.849,2.155,5.471,3.813,7.853l-6.405,6.405c-1.854,1.854-1.854,4.846-0.015,6.677l3.331,3.331
		c1.839,1.839,4.838,1.839,6.677,0l7.159-7.159c2.412,1.19,5.034,2.064,7.792,2.518v9.856c0,2.607,2.095,4.718,4.702,4.718h4.717
		c2.607,0,4.718-2.11,4.718-4.718v-11.078c2.381-0.844,4.627-1.967,6.658-3.398l7.597,7.604c1.838,1.839,4.822,1.839,6.677,0
		l3.331-3.338c1.838-1.839,1.838-4.823-0.016-6.67l-8.319-8.334c1.024-2.072,1.809-4.28,2.306-6.617h11.229
		c2.607,0,4.718-2.095,4.732-4.717v-4.71C87.134,77.157,85.023,75.04,82.416,75.04z M43.535,95.078
		c-6.511,0-11.786-5.26-11.786-11.786c0-6.511,5.275-11.771,11.786-11.771s11.786,5.261,11.786,11.771
		C55.321,89.818,50.046,95.078,43.535,95.078z"/> <path d="M122.718,24.015h-7.521c-0.452-1.432-1.085-2.804-1.839-4.069l4.989-5.004c1.175-1.161,1.175-3.06,0-4.235
		l-2.126-2.11c-1.175-1.176-3.074-1.176-4.234,0l-5.079,5.064c-1.372-0.784-2.864-1.387-4.446-1.793V5.273
		c0-1.65-1.342-3.007-3-3.007h-2.999c-1.643,0-2.999,1.356-2.999,3.007v6.594c-1.719,0.437-3.331,1.123-4.823,2.02l-4.25-4.235
		c-1.16-1.176-3.075-1.176-4.235,0l-2.125,2.11c-1.176,1.175-1.16,3.075,0,4.25l4.325,4.326c-0.919,1.598-1.598,3.338-1.989,5.185
		h-5.651c-1.658,0-3,1.342-3,3v3c0,1.658,1.342,2.999,3,2.999h6.028c0.558,1.809,1.371,3.474,2.427,4.989l-4.069,4.084
		c-1.176,1.176-1.176,3.075-0.016,4.25l2.125,2.11c1.176,1.176,3.075,1.176,4.251,0l4.552-4.552
		c1.537,0.753,3.194,1.312,4.958,1.598v6.27c0,1.658,1.342,3.007,2.999,3.014h3c1.657-0.007,2.999-1.356,2.999-3.014V46.23
		c1.507-0.542,2.939-1.251,4.235-2.17l4.838,4.838c1.176,1.176,3.06,1.176,4.25,0l2.11-2.125c1.176-1.161,1.176-3.06,0-4.243
		l-5.306-5.298c0.663-1.326,1.161-2.728,1.478-4.205h7.144c1.658,0,3-1.341,3.015-3.007v-2.999
		C125.718,25.371,124.376,24.015,122.718,24.015z M97.97,36.773c-4.145,0-7.505-3.354-7.505-7.499c0-4.145,3.36-7.498,7.505-7.498
		c4.146,0,7.506,3.354,7.506,7.498C105.476,33.419,102.115,36.773,97.97,36.773z"/> </g> </symbol><symbol viewBox="-241.5 460.5 28 28" id="icon-document"><title>document</title> <path d="M-223.498,462.5H-237.5v24h20v-18.002L-223.498,462.5z M-223.5,465.503l2.997,2.997h-2.995L-223.5,465.503z
	 M-219.5,484.5h-16v-20h10l0.002,6h5.998V484.5z"/> </symbol><symbol viewBox="0 0 128 128" id="icon-download"><title>download</title> <g> <path d="M111.275,42.713l0.045-0.437C111.32,22.793,95.526,7,76.043,7c-13.09,0-24.39,7.211-30.476,17.807
		c-2.641-1.317-5.565-2.129-8.72-2.129c-10.825,0-19.598,8.774-19.598,19.599l0.046,0.437C7.955,48.156,1.57,58.177,1.57,69.715
		c0,17.247,14.109,31.356,31.357,31.356h7.839v-7.84h-7.839c-12.969,0-23.518-10.549-23.518-23.517
		c0-8.222,4.532-15.97,11.835-20.227l3.889-2.273v-4.501l-0.039-0.819c0.2-6.309,5.397-11.376,11.751-11.376
		c1.73,0,3.483,0.444,5.214,1.302l6.622,3.307l3.682-6.415c4.992-8.682,13.841-13.872,23.678-13.872
		c14.976,0,27.178,12.05,27.438,26.962l-0.045,0.291v5.122l3.889,2.273c7.303,4.257,11.836,12.004,11.836,20.227
		c0,12.968-10.55,23.517-23.519,23.517h-7.839v7.84h7.839c17.248,0,31.357-14.109,31.357-31.356
		C126.999,58.177,120.614,48.156,111.275,42.713z"/> <polygon points="64.286,116.75 87.803,85.393 72.125,85.393 72.125,46.196 56.446,46.196 56.446,85.393 
		40.768,85.393 	"/> </g> </symbol><symbol viewBox="-241.5 460.5 28 28" id="icon-external"><title>external</title> <polygon points="-225.5,464.5 -225.5,466.5 -218.814,466.5 -225.4,473.086 -223.985,474.5 -217.5,468.015 
	-217.5,474.5 -215.5,474.5 -215.5,466.5 -215.5,464.5 "/> <polygon points="-219.5,476.5 -219.5,482.5 -237.5,482.5 -237.5,468.5 -227.5,468.5 -227.5,466.5 -239.5,466.5 
	-239.5,484.5 -217.5,484.5 -217.5,476.5 "/> </symbol><symbol viewBox="0 0 128 128" id="icon-facebook"><title>facebook</title> <path d="M95.087,41.429H74.831V28.143c0-4.988,3.306-6.153,5.634-6.153c2.324,0,14.293,0,14.293,0V0.058L75.073-0.019
	c-21.855,0-26.828,16.358-26.828,26.828v14.62H35.607v22.598h12.638c0,29.009,0,63.953,0,63.953h26.585c0,0,0-35.295,0-63.953
	h17.935L95.087,41.429z"/> </symbol><symbol viewBox="0 0 128 128" id="icon-file-text"><title>file-text</title> <g> <path d="M82.795,4.289H14v116.923h102.308V37.801L82.795,4.289z M101.692,106.597H28.615V18.904h48.128
		l24.949,24.949V106.597z"/> <rect x="43.23" y="55.442" width="43.847" height="7.308"/> <rect x="43.23" y="40.827" width="29.23" height="7.308"/> <rect x="43.23" y="70.059" width="43.847" height="7.308"/> <rect x="43.23" y="84.674" width="43.847" height="7.308"/> </g> </symbol><symbol viewBox="0 0 128 128" id="icon-flickr"><title>flickr</title> <g> <path d="M116.823,62.761c0,12.851-10.409,23.273-23.264,23.273c-12.87,0-23.28-10.423-23.28-23.273
		c0-12.848,10.41-23.27,23.28-23.27C106.414,39.491,116.823,49.913,116.823,62.761z"/> <path d="M57.716,62.761c0,12.851-10.409,23.273-23.283,23.273c-12.848,0-23.257-10.423-23.257-23.273
		c0-12.848,10.409-23.27,23.257-23.27C47.307,39.491,57.716,49.913,57.716,62.761z"/> </g> </symbol><symbol viewBox="0 0 128 128" id="icon-google-plus"><title>google-plus</title> <g> <path d="M67.729,74.824c-3.34-2.365-9.724-8.116-9.724-11.499c0-3.971,1.13-5.917,7.093-10.578
		c6.113-4.779,10.442-11.495,10.442-19.304c0-9.299-4.144-18.361-11.915-21.355h11.719l8.273-5.979H46.646
		c-16.569,0-32.17,12.557-32.17,27.099c0,14.862,11.301,26.862,28.161,26.862c1.175,0,2.311-0.027,3.428-0.105
		c-1.092,2.092-1.882,4.457-1.882,6.9c0,4.131,2.225,7.483,5.035,10.219c-2.126,0-4.178,0.063-6.405,0.063
		c-20.533,0-36.334,13.07-36.334,26.63c0,13.352,17.325,21.703,37.849,21.703c23.401,0,36.332-13.275,36.332-26.63
		C80.659,88.141,77.499,81.728,67.729,74.824z M47.983,56.298c-9.52-0.284-18.578-10.653-20.22-23.158
		c-1.645-12.509,4.747-22.08,14.268-21.8c9.519,0.288,18.578,10.32,20.218,22.829C63.892,46.678,57.507,56.586,47.983,56.298z
		 M44.253,119.576c-14.192,0-24.44-8.98-24.44-19.771c0-10.575,12.714-19.379,26.906-19.226c3.311,0.037,6.397,0.568,9.198,1.475
		c7.696,5.361,13.226,8.382,14.783,14.491c0.296,1.239,0.456,2.508,0.456,3.81C71.156,111.15,64.207,119.576,44.253,119.576z"/> <polygon points="107.127,57.387 107.127,43 95.544,43 95.544,57.387 81.152,57.387 81.152,68.972 95.544,68.972 95.544,83.366 
		107.127,83.366 107.127,68.972 121.521,68.972 121.521,57.387 	"/> </g> </symbol><symbol viewBox="-241.5 460.5 28 28" id="icon-hamburger"><title>hamburger</title> <rect x="-239.5" y="464.5" width="24" height="4"/> <rect x="-239.5" y="472.5" width="24" height="4"/> <rect x="-239.5" y="480.5" width="24" height="4"/> </symbol><symbol viewBox="0 0 128 128" id="icon-instagram"><title>instagram</title> <path d="M100.424,4.627H27.577c-12.656,0-22.951,10.292-22.951,22.947v24.239v48.615c0,12.653,10.295,22.944,22.951,22.944h72.847
	c12.654,0,22.95-10.291,22.95-22.944V51.813V27.574C123.374,14.919,113.078,4.627,100.424,4.627z M107.01,18.314l2.627-0.01v2.616
	v17.513l-20.068,0.064L89.5,18.369L107.01,18.314z M47.056,51.813C50.855,46.549,57.026,43.1,64,43.1
	c6.976,0,13.146,3.45,16.943,8.714c2.482,3.437,3.962,7.637,3.962,12.19c0,11.523-9.382,20.894-20.905,20.894
	s-20.899-9.371-20.899-20.894C43.101,59.451,44.581,55.25,47.056,51.813z M111.804,100.429c0,6.276-5.099,11.374-11.38,11.374
	H27.577c-6.28,0-11.379-5.098-11.379-11.374V51.813h17.728c-1.536,3.766-2.394,7.878-2.394,12.19
	c0,17.901,14.563,32.472,32.468,32.472s32.468-14.571,32.468-32.472c0-4.312-0.864-8.424-2.393-12.19h17.729V100.429z"/> </symbol><symbol viewBox="0 0 128 128" id="icon-link"><title>link</title> <path d="M88.555,79.415c2.249,2.249,2.249,5.894,0,8.143l-0.129,0.128c-2.248,2.249-5.893,2.249-8.141,0
	L39.84,47.241c-2.249-2.249-2.249-5.894,0-8.142l0.129-0.128c2.248-2.249,5.893-2.249,8.141,0L88.555,79.415z"/> <path d="M9.985,8.997L9.858,9.124c-8.943,8.943-9.282,23.664-0.339,32.605l15.9,15.9
	c6.53,6.532,16.439,8.169,24.248,5.642L39.406,53.01c-2.385-0.318-4.006-1.94-5.718-3.65l-15.9-15.9
	c-4.461-4.462-4.122-11.604,0.339-16.066l0.128-0.127c4.461-4.461,11.612-4.809,16.074-0.347l15.9,15.899
	c1.816,1.817,2.496,4.564,2.86,6.997l10.213,10.213c3.658-8.747,0.857-17.751-5.837-24.446l-15.9-15.9
	C32.622,0.74,18.928,0.054,9.985,8.997z"/> <path d="M117.893,118.177l0.127-0.127c8.943-8.943,9.132-22.78,0.188-31.723l-15.9-15.9
	c-6.53-6.532-15.405-9.203-24.248-5.642l10.262,10.262c2.384,0.316,5.04,0.905,6.751,2.615l15.898,15.9
	c4.462,4.461,3.241,11.755-1.221,16.217l-0.127,0.127c-4.461,4.462-10.73,4.657-15.191,0.195l-15.9-15.899
	c-1.816-1.816-3.529-3.529-3.895-5.962L64.424,78.026c-2.625,7.714-0.857,17.75,5.838,24.446l15.899,15.899
	C95.105,127.315,108.949,127.12,117.893,118.177z"/> </symbol><symbol viewBox="0 0 128 128" id="icon-linkedin"><title>linkedin</title> <path d="M29.084,118.565H4.762V40.738h24.323V118.565z M16.296,31.001h-0.173c-8.8,0-14.507-5.951-14.507-13.486
	C1.616,9.827,7.493,4,16.47,4c8.969,0,14.491,5.811,14.665,13.492C31.135,25.032,25.439,31.001,16.296,31.001z M126.384,118.565
	H98.808V78.289c0-10.541-4.312-17.733-13.799-17.733c-7.255,0-11.287,4.854-13.168,9.533c-0.7,1.676-0.595,4.02-0.595,6.363v42.113
	h-27.32c0,0,0.355-71.344,0-77.828h27.32v12.213c1.614-5.341,10.343-12.965,24.282-12.965c17.278,0,30.855,11.199,30.855,35.303
	V118.565z"/> </symbol><symbol viewBox="0 0 128 128" id="icon-lock"><title>lock</title> <path d="M100.808,51.052V39.629c0-20.017-16.503-36.296-36.808-36.296c-20.289,0-36.808,16.279-36.808,36.296v11.422
	h-8.179v73.615h89.974V51.052H100.808z M69.703,108.309H56.156l3.451-18.764c-2.029-1.174-3.451-3.275-3.451-5.775
	c0-3.746,3.035-6.781,6.773-6.781c3.739,0,6.773,3.035,6.773,6.781c0,2.5-1.422,4.602-3.451,5.775L69.703,108.309z M84.449,51.052
	H43.552V39.629c0-10.808,9.361-19.938,20.448-19.938s20.449,9.13,20.449,19.938V51.052z"/> </symbol><symbol viewBox="0 0 128 128" id="icon-paypal"><title>paypal</title> <path d="M122.006,33.879c-0.274-4.993-1.593-9.273-3.635-12.909c-5.94-10.561-18.062-15.554-29.101-15.554H29.807L3.45,122.583
	h34.907l8.526-38.78h24.968c0.271,0,0.571-0.035,0.877-0.035c14.164-0.238,26.9-5.501,35.932-14.912
	c5.877-6.178,10.221-14.059,12.333-23.536C121.869,41.176,122.174,37.342,122.006,33.879z M88.215,45.32
	c-0.947,3.878-3.162,7.403-6.081,10.189c-1.049,0.986-2.234,1.87-3.459,2.649c-3.161,1.972-6.792,3.193-10.428,3.193H51.875
	l6.934-29.714l0.571-2.348h17.087c2.946,0,5.529,0.888,7.606,2.348C87.94,34.454,89.85,39.482,88.215,45.32z"/> </symbol><symbol viewBox="0 0 128 128" id="icon-pinterest"><title>pinterest</title> <path d="M64.278,5.101c-32.256,0-58.415,26.153-58.415,58.411c0,23.917,14.385,44.466,34.971,53.5
	c-0.167-4.075-0.03-8.977,1.013-13.413c1.125-4.74,7.513-31.829,7.513-31.829s-1.863-3.729-1.863-9.241
	c0-8.656,5.021-15.121,11.266-15.121c5.312,0,7.88,3.988,7.88,8.77c0,5.344-3.406,13.33-5.159,20.728
	C60.02,83.102,64.59,88.154,70.7,88.154c11.069,0,18.522-14.21,18.522-31.054c0-12.8-8.624-22.383-24.303-22.383
	c-17.718,0-28.756,13.213-28.756,27.97c0,5.091,1.498,8.679,3.846,11.457c1.083,1.282,1.232,1.79,0.843,3.261
	c-0.279,1.064-0.924,3.661-1.191,4.685c-0.389,1.479-1.585,2.009-2.921,1.463c-8.163-3.333-11.962-12.269-11.962-22.314
	c0-16.591,13.989-36.495,41.742-36.495c22.305,0,36.979,16.144,36.979,33.462c0,22.921-12.736,40.031-31.52,40.031
	c-6.301,0-12.235-3.405-14.264-7.276c0,0-3.393,13.454-4.112,16.055c-1.234,4.503-3.662,9.003-5.878,12.51
	c5.253,1.554,10.804,2.4,16.555,2.4c32.259,0,58.408-26.156,58.408-58.414C122.687,31.253,96.537,5.101,64.278,5.101z"/> </symbol><symbol viewBox="0 0 128 128" id="icon-search"><title>search</title> <path d="M124.508,107.948L103,86.44c5.451-8.501,8.653-18.588,8.653-29.437c0-30.184-24.466-54.65-54.65-54.65
	s-54.65,24.466-54.65,54.65s24.466,54.651,54.65,54.651c10.849,0,20.932-3.202,29.433-8.654l21.504,21.509
	c1.518,1.517,4.003,1.517,5.521,0l11.047-11.04C126.025,111.943,126.025,109.458,124.508,107.948z M57.003,96.039
	c-21.523,0-39.036-17.513-39.036-39.036S35.48,17.967,57.003,17.967S96.039,35.48,96.039,57.003S78.526,96.039,57.003,96.039z"/> </symbol><symbol viewBox="0 0 128 128" id="icon-soundcloud"><title>soundcloud</title> <g> <g> <path d="M124.61,76.202c0-11.3-8.079-20.61-18.519-22.013c-0.27-17.285-13.57-31.216-29.974-31.216
			c-10.619,0-19.922,5.839-25.262,14.643c-2.354-1.11-5.009-1.771-7.785-1.771c-10.069,0-18.222,8.136-18.272,18.158
			c-11.563,0.202-20.88,10.055-20.88,22.198c0,12.269,9.516,22.202,21.244,22.202c0.307,0,0.607-0.021,0.921-0.047v0.047h78.813
			V98.32C115.918,97.504,124.61,87.928,124.61,76.202z"/> </g> </g> </symbol><symbol viewBox="-241.5 460.5 28 28" id="icon-star-empty"><title>star-empty</title> <path d="M-227.5,464.544l2.344,7.211h7.576l-6.132,4.452l2.344,7.211l-6.132-4.453l-6.133,4.454l2.344-7.212
	l-6.131-4.452h7.578L-227.5,464.544 M-227.5,460.5l-3.251,10.005h-10.519l8.51,6.18l-3.251,10.005l8.511-6.18l8.51,6.18
	l-3.252-10.005l8.512-6.18h-10.518L-227.5,460.5L-227.5,460.5z"/> </symbol><symbol viewBox="-241.5 460.5 28 28" id="icon-star-full"><title>star-full</title> <polygon points="-213.73,470.505 -224.248,470.505 -227.5,460.5 -230.751,470.505 -241.27,470.505 -232.76,476.685 
	-236.012,486.689 -227.5,480.51 -218.99,486.689 -222.242,476.685 "/> </symbol><symbol viewBox="0 0 128 128" id="icon-star-half"><title>star-half</title> <path d="M126.081,50.203l-46.73-1.107L64.148,4.894L48.655,48.994L1.919,49.792l37.154,28.363l-13.684,44.695l38.457-26.57
	l38.279,26.826L88.738,78.32L126.081,50.203z M94.997,113.227L66.142,93.005l-1.642-1.15v-73.64l11.068,32.182l0.905,2.632
	l2.782,0.066l35.227,0.834l-28.15,21.196l-2.224,1.674l0.798,2.667L94.997,113.227z"/> </symbol><symbol viewBox="0 0 128 128" id="icon-times"><title>times</title> <polygon points="116.988,21.72 106.279,11.011 64,53.292 21.72,11.012 11.012,21.72 53.292,64 11.011,106.281 
	21.72,116.988 64,74.709 106.281,116.988 116.988,106.281 74.709,64 "/> </symbol><symbol viewBox="0 0 128 128" id="icon-tumblr"><title>tumblr</title> <path d="M64.177,4.262v30.198h28.345v18.754H64.177v30.635c0,6.934,0.361,11.378,1.095,13.338c0.729,1.976,2.093,3.542,4.104,4.721
	c2.636,1.583,5.651,2.369,9.061,2.369c6.052,0,12.062-1.972,18.05-5.899v18.853c-5.112,2.393-9.728,4.086-13.865,5.053
	c-4.142,0.979-8.615,1.456-13.425,1.456c-5.469,0-10.296-0.69-14.488-2.062c-4.193-1.392-7.78-3.348-10.735-5.902
	c-2.967-2.555-5.028-5.277-6.166-8.152c-1.149-2.871-1.719-7.043-1.719-12.504V53.214H22.876V36.309
	c4.707-1.529,8.72-3.718,12.067-6.557c3.342-2.85,6.038-6.265,8.056-10.264c2.021-3.981,3.422-9.067,4.185-15.227H64.177z"/> </symbol><symbol viewBox="0 0 128 128" id="icon-twitter"><title>twitter</title> <g> <g> <path d="M128.385,24.541c-4.749,2.294-9.798,3.779-15.15,4.465c5.45-3.511,9.638-9.038,11.62-15.664
			c-5.101,3.232-10.747,5.544-16.763,6.895c-4.785-5.537-11.655-8.987-19.213-8.987c-14.548,0-26.337,12.681-26.337,28.362
			c0,2.202,0.228,4.38,0.665,6.429C41.358,44.913,21.921,33.579,8.922,16.456c-2.257,4.176-3.551,9.038-3.551,14.254
			c0,9.814,4.644,18.548,11.724,23.559c-4.325-0.177-8.387-1.384-11.934-3.527c0,0.118,0,0.263,0,0.387
			c0,13.713,9.077,25.156,21.125,27.806c-2.206,0.645-4.54,0.936-6.958,0.936c-1.692,0-3.299-0.118-4.925-0.503
			C17.742,90.677,27.478,98.887,39,99.056c-9.016,7.641-20.37,12.131-32.711,12.131c-2.131,0-4.235-0.122-6.29-0.394
			c11.653,8.085,25.472,12.791,40.379,12.791c48.441,0,74.948-43.222,74.948-80.69c0-1.197-0.028-2.412-0.087-3.627
			C120.38,35.216,124.854,30.212,128.385,24.541z"/> </g> </g> </symbol><symbol viewBox="0 0 128 128" id="icon-unlock"><title>unlock</title> <path d="M90.25,6.462c-18.604,0-33.75,15.088-33.75,33.641V51.69H4v67.5h82.5v-67.5h-15V40.103
	c0-10.283,8.408-18.641,18.75-18.641S109,29.82,109,40.103V51.69h15V40.103C124,21.551,108.868,6.462,90.25,6.462z M51.139,104.189
	H38.541l3.281-17.607c-1.919-1.084-3.281-3.068-3.281-5.435c0-3.479,2.827-6.299,6.299-6.299c3.486,0,6.298,2.82,6.298,6.299
	c0,2.373-1.362,4.351-3.281,5.435L51.139,104.189z"/> </symbol><symbol viewBox="0 0 128 128" id="icon-upload"><title>upload</title> <g> <path d="M111.275,42.713l0.045-0.437C111.32,22.793,95.526,7,76.043,7c-13.09,0-24.39,7.211-30.476,17.807
		c-2.641-1.317-5.565-2.129-8.72-2.129c-10.825,0-19.598,8.774-19.598,19.599l0.046,0.437C7.955,48.156,1.57,58.177,1.57,69.715
		c0,17.247,14.109,31.356,31.357,31.356h7.839v-7.84h-7.839c-12.969,0-23.518-10.549-23.518-23.517
		c0-8.222,4.532-15.97,11.835-20.227l3.889-2.273v-4.501l-0.039-0.819c0.2-6.309,5.397-11.376,11.751-11.376
		c1.73,0,3.483,0.444,5.214,1.302l6.622,3.307l3.682-6.415c4.992-8.682,13.841-13.872,23.678-13.872
		c14.976,0,27.178,12.05,27.438,26.962l-0.045,0.291v5.122l3.889,2.273c7.303,4.257,11.836,12.004,11.836,20.227
		c0,12.968-10.55,23.517-23.519,23.517h-7.839v7.84h7.839c17.248,0,31.357-14.109,31.357-31.356
		C126.999,58.177,120.614,48.156,111.275,42.713z"/> <polygon points="64.284,46.196 40.767,77.554 56.445,77.554 56.445,116.75 72.124,116.75 72.124,77.554 
		87.803,77.554 	"/> </g> </symbol><symbol viewBox="0 0 128 128" id="icon-vimeo"><title>vimeo</title> <path d="M120.201,39.903c-0.49,10.941-8.148,25.902-22.928,44.878c-15.299,19.85-28.258,29.766-38.847,29.766
	c-6.552,0-12.102-6.035-16.636-18.142c-3.038-11.104-6.056-22.213-9.084-33.287c-3.373-12.116-6.983-18.166-10.848-18.166
	c-0.841,0-3.773,1.767-8.826,5.302l-5.291-6.82c5.544-4.862,11.009-9.747,16.397-14.612c7.385-6.394,12.934-9.749,16.643-10.096
	c8.728-0.848,14.117,5.125,16.145,17.899c2.164,13.792,3.689,22.369,4.528,25.733c2.528,11.427,5.293,17.134,8.322,17.134
	c2.346,0,5.879-3.69,10.588-11.081c4.711-7.404,7.225-13.032,7.566-16.909c0.672-6.385-1.848-9.564-7.566-9.564
	c-2.686,0-5.463,0.569-8.32,1.762c5.557-17.992,16.145-26.736,31.779-26.226C115.416,17.802,120.883,25.289,120.201,39.903z"/> </symbol><symbol viewBox="0 0 128 128" id="icon-youtube"><title>youtube</title> <path d="M125.732,33.65c-0.072-0.49-0.173-0.969-0.304-1.433c-0.06-0.22-0.123-0.441-0.199-0.657
	c-1.633-4.849-6.211-8.348-11.61-8.35h0.842c0,0-21.714-3.277-50.603-3.41c-28.884,0.133-50.602,3.41-50.602,3.41h0.844
	c-5.402,0.002-9.977,3.501-11.615,8.35c-0.072,0.216-0.135,0.437-0.198,0.657c-0.127,0.464-0.229,0.943-0.3,1.433
	c-0.789,5.632-2.089,16.875-2.207,30.345c0.118,13.479,1.418,24.711,2.207,30.354c0.072,0.489,0.173,0.962,0.3,1.426
	c0.062,0.229,0.126,0.438,0.198,0.658c1.638,4.854,6.213,8.353,11.615,8.353h-0.844c0,0,21.717,3.278,50.602,3.414
	c28.889-0.136,50.603-3.414,50.603-3.414h-0.842c5.399,0,9.978-3.498,11.61-8.353c0.076-0.22,0.14-0.43,0.199-0.658
	c0.131-0.464,0.231-0.937,0.304-1.426c0.784-5.643,2.09-16.874,2.203-30.354C127.822,50.525,126.517,39.282,125.732,33.65z
	 M82.838,66.739L56.962,85.536c-0.54,0.396-1.186,0.6-1.828,0.6c-0.481,0-0.971-0.118-1.413-0.339
	c-1.043-0.535-1.701-1.611-1.701-2.785V45.433c0-1.175,0.658-2.248,1.701-2.781c1.038-0.53,2.295-0.429,3.24,0.256L82.838,61.7
	c0.809,0.586,1.282,1.523,1.282,2.519C84.12,65.22,83.646,66.152,82.838,66.739z"/> </symbol></svg>